# xmcd CD database file
#
# Track frame offsets:
#	150
#	15088
#	32885
#	48411
#	64784
#	84361
#	100358
#	119521
#	137872
#	156209
#	176061
#
# Disc length: 2585 seconds
#
# Revision: 0
# Processed by: cddbd v1.5.2PL0 Copyright (c) Steve Scherf et al.
# Submitted via: CDex 1.51
#
DISCID=8d0a170b
DTITLE=James Otto - Sunset Man
DYEAR=2008
DGENRE=Country
TTITLE0=Ain't Gonna Stop
TTITLE1=Just Got Started Lovin' You
TTITLE2=For You
TTITLE3=These Are The Good Ole Days
TTITLE4=Where Angels Hang Around
TTITLE5=Sunset Man
TTITLE6=You Don't Act Like My Woman
TTITLE7=When A Woman's Not Whatching
TTITLE8=Drink and Dial
TTITLE9=Damn Right
TTITLE10=The Man That I Am
EXTD=YEAR: 2008
EXTT0=
EXTT1=
EXTT2=
EXTT3=
EXTT4=
EXTT5=
EXTT6=
EXTT7=
EXTT8=
EXTT9=
EXTT10=
PLAYORDER=
